<svg width="32" height="32" viewBox="0 0 63 80" xmlns="http://www.w3.org/2000/svg">
<path d="M60 0H2.85714C1.27679 0 0 1.27679 0 2.85714V77.1429C0 78.7232 1.27679 80 2.85714 80H60C61.5804 80 62.8572 78.7232 62.8572 77.1429V2.85714C62.8572 1.27679 61.5804 0 60 0ZM36.7857 6.42857H45.3571V25.1696L41.2054 22.1429L36.7857 25.3036V6.42857ZM56.4286 73.5714H6.42857V6.42857H31.4286V32.9375C31.4286 33.2321 31.5179 33.5268 31.6964 33.7679C31.8048 33.9211 31.9425 34.0513 32.1016 34.151C32.2606 34.2506 32.4379 34.3178 32.623 34.3485C32.8082 34.3792 32.9976 34.3729 33.1803 34.33C33.363 34.287 33.5354 34.2082 33.6875 34.0982L41.1696 28.75L48.4375 34.0536C48.6786 34.2321 48.9732 34.3304 49.2768 34.3304C50.0625 34.3304 50.7054 33.6875 50.7054 32.9018V6.42857H56.4197V73.5714H56.4286Z" />
</svg>
