<svg width="15" height="15" viewBox="0 0 15 15" xmlns="http://www.w3.org/2000/svg">
<path d="M13.7945 12.188H2.27665V1.74159C2.27665 1.66793 2.21638 1.60767 2.14272 1.60767H1.20522C1.13156 1.60767 1.07129 1.66793 1.07129 1.74159V13.2595C1.07129 13.3331 1.13156 13.3934 1.20522 13.3934H13.7945C13.8682 13.3934 13.9284 13.3331 13.9284 13.2595V12.322C13.9284 12.2483 13.8682 12.188 13.7945 12.188ZM3.74986 10.8487H4.68736C4.76102 10.8487 4.82129 10.7885 4.82129 10.7148V8.3041C4.82129 8.23044 4.76102 8.17017 4.68736 8.17017H3.74986C3.6762 8.17017 3.61593 8.23044 3.61593 8.3041V10.7148C3.61593 10.7885 3.6762 10.8487 3.74986 10.8487ZM6.2945 10.8487H7.232C7.30566 10.8487 7.36593 10.7885 7.36593 10.7148V5.35767C7.36593 5.28401 7.30566 5.22374 7.232 5.22374H6.2945C6.22084 5.22374 6.16058 5.28401 6.16058 5.35767V10.7148C6.16058 10.7885 6.22084 10.8487 6.2945 10.8487ZM8.83915 10.8487H9.77665C9.85031 10.8487 9.91058 10.7885 9.91058 10.7148V6.66347C9.91058 6.58981 9.85031 6.52954 9.77665 6.52954H8.83915C8.76549 6.52954 8.70522 6.58981 8.70522 6.66347V10.7148C8.70522 10.7885 8.76549 10.8487 8.83915 10.8487ZM11.3838 10.8487H12.3213C12.395 10.8487 12.4552 10.7885 12.4552 10.7148V4.01838C12.4552 3.94472 12.395 3.88445 12.3213 3.88445H11.3838C11.3101 3.88445 11.2499 3.94472 11.2499 4.01838V10.7148C11.2499 10.7885 11.3101 10.8487 11.3838 10.8487Z" />
</svg>
