<svg width="32" height="33" viewBox="0 0 88 82" xmlns="http://www.w3.org/2000/svg">
<path d="M85.7091 40.3384L48.6216 4.13218L46.1356 1.70406C45.5692 1.15446 44.8032 0.846008 44.0048 0.846008C43.2064 0.846008 42.4404 1.15446 41.874 1.70406L2.30059 40.3384C1.7202 40.9031 1.2615 41.5756 0.951581 42.3163C0.641661 43.057 0.486795 43.8508 0.496125 44.6509C0.534518 47.9509 3.3468 50.5853 6.72537 50.5853H10.8046V81.1197H77.2051V50.5853H81.3707C83.012 50.5853 84.5573 49.9572 85.7187 48.8228C86.2905 48.266 86.7436 47.604 87.0517 46.875C87.3598 46.146 87.5168 45.3646 87.5135 44.5759C87.5135 42.9822 86.8705 41.4728 85.7091 40.3384ZM49.3798 74.3697H38.6298V55.2447H49.3798V74.3697ZM70.2943 43.8353V74.3697H55.5227V52.9947C55.5227 50.9228 53.8046 49.2447 51.6834 49.2447H36.3263C34.2051 49.2447 32.487 50.9228 32.487 52.9947V74.3697H17.7153V43.8353H8.50104L44.0144 9.17593L46.2316 11.3416L79.5182 43.8353H70.2943Z" />
</svg>
