<svg width="36" height="36" viewBox="0 0 36 36" xmlns="http://www.w3.org/2000/svg">
<g clip-path="url(#clip0_1023_252)">
  <path d="M34.5855 22.5741L31.9538 20.3241C32.0784 19.5607 32.1427 18.7812 32.1427 18.0018C32.1427 17.2223 32.0784 16.4428 31.9538 15.6794L34.5855 13.4294C34.784 13.2595 34.9261 13.0332 34.9928 12.7806C35.0596 12.5279 35.0478 12.261 34.9592 12.0152L34.923 11.9107C34.1985 9.8858 33.1136 8.00869 31.7208 6.37007L31.6485 6.28569C31.4795 6.08702 31.2543 5.9442 31.0026 5.87606C30.7508 5.80793 30.4843 5.81766 30.2382 5.904L26.9717 7.06516C25.7663 6.07676 24.4203 5.2973 22.9659 4.75087L22.3351 1.33569C22.2875 1.07872 22.1628 0.84231 21.9777 0.657872C21.7925 0.473434 21.5556 0.349698 21.2985 0.303104L21.19 0.283015C19.0967 -0.0946638 16.8949 -0.0946638 14.8016 0.283015L14.6931 0.303104C14.436 0.349698 14.1991 0.473434 14.0139 0.657872C13.8288 0.84231 13.7041 1.07872 13.6565 1.33569L13.0217 4.76694C11.5788 5.31349 10.2352 6.09254 9.04401 7.07319L5.75338 5.904C5.50735 5.81698 5.24067 5.80689 4.98877 5.87507C4.73686 5.94325 4.51167 6.08646 4.34312 6.28569L4.2708 6.37007C2.8796 8.00985 1.79489 9.88665 1.06856 11.9107L1.0324 12.0152C0.851598 12.5174 1.00026 13.0799 1.40606 13.4294L4.0699 15.7036C3.94535 16.4589 3.88508 17.2303 3.88508 17.9977C3.88508 18.7692 3.94535 19.5406 4.0699 20.2919L1.40606 22.5661C1.20756 22.736 1.06549 22.9623 0.998748 23.2149C0.932002 23.4676 0.94374 23.7345 1.0324 23.9803L1.06856 24.0848C1.79579 26.1098 2.87258 27.9781 4.2708 29.6254L4.34312 29.7098C4.51208 29.9085 4.73728 30.0513 4.98904 30.1194C5.24079 30.1876 5.50728 30.1778 5.75338 30.0915L9.04401 28.9223C10.2413 29.9067 11.5793 30.6861 13.0217 31.2286L13.6565 34.6598C13.7041 34.9168 13.8288 35.1532 14.0139 35.3376C14.1991 35.5221 14.436 35.6458 14.6931 35.6924L14.8016 35.7125C16.9141 36.0922 19.0775 36.0922 21.19 35.7125L21.2985 35.6924C21.5556 35.6458 21.7925 35.5221 21.9777 35.3376C22.1628 35.1532 22.2875 34.9168 22.3351 34.6598L22.9659 31.2446C24.4198 30.6996 25.7733 29.9176 26.9717 28.9303L30.2382 30.0915C30.4842 30.1785 30.7509 30.1886 31.0028 30.1204C31.2547 30.0522 31.4799 29.909 31.6485 29.7098L31.7208 29.6254C33.119 27.9741 34.1958 26.1098 34.923 24.0848L34.9592 23.9803C35.14 23.4861 34.9913 22.9236 34.5855 22.5741V22.5741ZM29.1012 16.1535C29.2016 16.7602 29.2538 17.383 29.2538 18.0058C29.2538 18.6286 29.2016 19.2513 29.1012 19.858L28.836 21.4692L31.8373 24.0366C31.3823 25.0848 30.808 26.0771 30.1257 26.9937L26.3971 25.6719L25.1355 26.7085C24.1753 27.496 23.1065 28.1147 21.9494 28.5486L20.4186 29.1232L19.6994 33.0205C18.5646 33.1491 17.4189 33.1491 16.2842 33.0205L15.565 29.1152L14.0462 28.5326C12.9012 28.0986 11.8364 27.4799 10.8842 26.6964L9.62258 25.6558L5.8699 26.9897C5.18687 26.0696 4.61633 25.0772 4.15829 24.0326L7.19178 21.4411L6.93062 19.8339C6.83419 19.2352 6.78196 18.6165 6.78196 18.0058C6.78196 17.3911 6.83017 16.7763 6.93062 16.1777L7.19178 14.5705L4.15829 11.979C4.61231 10.9303 5.18687 9.94194 5.8699 9.02185L9.62258 10.3558L10.8842 9.31516C11.8364 8.53168 12.9012 7.91293 14.0462 7.479L15.569 6.90444L16.2882 2.99909C17.4172 2.87051 18.5703 2.87051 19.7034 2.99909L20.4226 6.89641L21.9534 7.47096C23.1065 7.90489 24.1793 8.52364 25.1395 9.31114L26.4012 10.3477L30.1297 9.02587C30.8128 9.94596 31.3833 10.9384 31.8413 11.983L28.84 14.5504L29.1012 16.1535ZM17.9998 10.5326C14.0945 10.5326 10.9284 13.6986 10.9284 17.604C10.9284 21.5094 14.0945 24.6754 17.9998 24.6754C21.9052 24.6754 25.0712 21.5094 25.0712 17.604C25.0712 13.6986 21.9052 10.5326 17.9998 10.5326ZM21.182 20.7861C20.7646 21.2047 20.2686 21.5366 19.7225 21.7628C19.1764 21.989 18.5909 22.1049 17.9998 22.104C16.7985 22.104 15.6695 21.6339 14.8177 20.7861C14.3991 20.3688 14.0672 19.8728 13.841 19.3267C13.6149 18.7805 13.4989 18.1951 13.4998 17.604C13.4998 16.4027 13.9699 15.2736 14.8177 14.4219C15.6695 13.5701 16.7985 13.104 17.9998 13.104C19.2012 13.104 20.3302 13.5701 21.182 14.4219C21.6005 14.8392 21.9324 15.3352 22.1586 15.8813C22.3848 16.4275 22.5007 17.0129 22.4998 17.604C22.4998 18.8053 22.0297 19.9344 21.182 20.7861Z" />
</g>
<defs>
<clipPath id="clip0_1023_252">
  <rect width="36" height="36"/>
</clipPath>
</defs>
</svg>
