<svg width="15" height="15" viewBox="0 0 15 15" xmlns="http://www.w3.org/2000/svg">
<path d="M13.3594 2.8125H4.80469C4.74023 2.8125 4.6875 2.86523 4.6875 2.92969V3.75C4.6875 3.81445 4.74023 3.86719 4.80469 3.86719H13.3594C13.4238 3.86719 13.4766 3.81445 13.4766 3.75V2.92969C13.4766 2.86523 13.4238 2.8125 13.3594 2.8125ZM13.3594 6.97266H4.80469C4.74023 6.97266 4.6875 7.02539 4.6875 7.08984V7.91016C4.6875 7.97461 4.74023 8.02734 4.80469 8.02734H13.3594C13.4238 8.02734 13.4766 7.97461 13.4766 7.91016V7.08984C13.4766 7.02539 13.4238 6.97266 13.3594 6.97266ZM13.3594 11.1328H4.80469C4.74023 11.1328 4.6875 11.1855 4.6875 11.25V12.0703C4.6875 12.1348 4.74023 12.1875 4.80469 12.1875H13.3594C13.4238 12.1875 13.4766 12.1348 13.4766 12.0703V11.25C13.4766 11.1855 13.4238 11.1328 13.3594 11.1328ZM1.52344 3.33984C1.52344 3.44757 1.54466 3.55424 1.58588 3.65376C1.6271 3.75329 1.68753 3.84372 1.7637 3.91989C1.83987 3.99607 1.93031 4.05649 2.02983 4.09771C2.12935 4.13894 2.23603 4.16016 2.34375 4.16016C2.45147 4.16016 2.55815 4.13894 2.65767 4.09771C2.75719 4.05649 2.84763 3.99607 2.9238 3.91989C2.99997 3.84372 3.0604 3.75329 3.10162 3.65376C3.14284 3.55424 3.16406 3.44757 3.16406 3.33984C3.16406 3.23212 3.14284 3.12545 3.10162 3.02592C3.0604 2.9264 2.99997 2.83597 2.9238 2.7598C2.84763 2.68362 2.75719 2.6232 2.65767 2.58197C2.55815 2.54075 2.45147 2.51953 2.34375 2.51953C2.23603 2.51953 2.12935 2.54075 2.02983 2.58197C1.93031 2.6232 1.83987 2.68362 1.7637 2.7598C1.68753 2.83597 1.6271 2.9264 1.58588 3.02592C1.54466 3.12545 1.52344 3.23212 1.52344 3.33984ZM1.52344 7.5C1.52344 7.60773 1.54466 7.7144 1.58588 7.81392C1.6271 7.91345 1.68753 8.00388 1.7637 8.08005C1.83987 8.15622 1.93031 8.21665 2.02983 8.25787C2.12935 8.29909 2.23603 8.32031 2.34375 8.32031C2.45147 8.32031 2.55815 8.29909 2.65767 8.25787C2.75719 8.21665 2.84763 8.15622 2.9238 8.08005C2.99997 8.00388 3.0604 7.91345 3.10162 7.81392C3.14284 7.7144 3.16406 7.60773 3.16406 7.5C3.16406 7.39227 3.14284 7.2856 3.10162 7.18608C3.0604 7.08656 2.99997 6.99612 2.9238 6.91995C2.84763 6.84378 2.75719 6.78335 2.65767 6.74213C2.55815 6.70091 2.45147 6.67969 2.34375 6.67969C2.23603 6.67969 2.12935 6.70091 2.02983 6.74213C1.93031 6.78335 1.83987 6.84378 1.7637 6.91995C1.68753 6.99612 1.6271 7.08656 1.58588 7.18608C1.54466 7.2856 1.52344 7.39227 1.52344 7.5ZM1.52344 11.6602C1.52344 11.7679 1.54466 11.8746 1.58588 11.9741C1.6271 12.0736 1.68753 12.164 1.7637 12.2402C1.83987 12.3164 1.93031 12.3768 2.02983 12.418C2.12935 12.4593 2.23603 12.4805 2.34375 12.4805C2.45147 12.4805 2.55815 12.4593 2.65767 12.418C2.75719 12.3768 2.84763 12.3164 2.9238 12.2402C2.99997 12.164 3.0604 12.0736 3.10162 11.9741C3.14284 11.8746 3.16406 11.7679 3.16406 11.6602C3.16406 11.5524 3.14284 11.4458 3.10162 11.3462C3.0604 11.2467 2.99997 11.1563 2.9238 11.0801C2.84763 11.0039 2.75719 10.9435 2.65767 10.9023C2.55815 10.8611 2.45147 10.8398 2.34375 10.8398C2.23603 10.8398 2.12935 10.8611 2.02983 10.9023C1.93031 10.9435 1.83987 11.0039 1.7637 11.0801C1.68753 11.1563 1.6271 11.2467 1.58588 11.3462C1.54466 11.4458 1.52344 11.5524 1.52344 11.6602Z" />
</svg>
